<?xml version="1.0" encoding="UTF-8" standalone="no"?>
<!-- Created with Inkscape (http://www.inkscape.org/) -->

<svg
   xmlns:dc="http://purl.org/dc/elements/1.1/"
   xmlns:cc="http://creativecommons.org/ns#"
   xmlns:rdf="http://www.w3.org/1999/02/22-rdf-syntax-ns#"
   xmlns:svg="http://www.w3.org/2000/svg"
   xmlns="http://www.w3.org/2000/svg"
   xmlns:sodipodi="http://sodipodi.sourceforge.net/DTD/sodipodi-0.dtd"
   xmlns:inkscape="http://www.inkscape.org/namespaces/inkscape"
   id="svg3336"
   version="1.1"
   inkscape:version="0.91 r13725"
   width="2155"
   height="465"
   viewBox="0 0 2155 465"
   sodipodi:docname="deda.svg">
  <metadata
     id="metadata3342">
    <rdf:RDF>
      <cc:Work
         rdf:about="">
        <dc:format>image/svg+xml</dc:format>
        <dc:type
           rdf:resource="http://purl.org/dc/dcmitype/StillImage" />
        <dc:title></dc:title>
      </cc:Work>
    </rdf:RDF>
  </metadata>
  <defs
     id="defs3340">
    <filter
       style="color-interpolation-filters:sRGB;"
       inkscape:label="Drop Shadow"
       id="filter4424">
      <feFlood
         flood-opacity="1"
         flood-color="rgb(0,0,0)"
         result="flood"
         id="feFlood4426" />
      <feComposite
         in="flood"
         in2="SourceGraphic"
         operator="in"
         result="composite1"
         id="feComposite4428" />
      <feGaussianBlur
         in="composite1"
         stdDeviation="3.2"
         result="blur"
         id="feGaussianBlur4430" />
      <feOffset
         dx="4.6875"
         dy="3.6"
         result="offset"
         id="feOffset4432" />
      <feComposite
         in="SourceGraphic"
         in2="offset"
         operator="over"
         result="fbSourceGraphic"
         id="feComposite4434" />
      <feColorMatrix
         result="fbSourceGraphicAlpha"
         in="fbSourceGraphic"
         values="0 0 0 -1 0 0 0 0 -1 0 0 0 0 -1 0 0 0 0 1 0"
         id="feColorMatrix4436" />
      <feFlood
         id="feFlood4438"
         flood-opacity="1"
         flood-color="rgb(0,0,0)"
         result="flood"
         in="fbSourceGraphic" />
      <feComposite
         id="feComposite4440"
         in2="fbSourceGraphic"
         in="flood"
         operator="in"
         result="composite1" />
      <feGaussianBlur
         id="feGaussianBlur4442"
         in="composite1"
         stdDeviation="3.2"
         result="blur" />
      <feOffset
         id="feOffset4444"
         dx="4.7"
         dy="3.6"
         result="offset" />
      <feComposite
         id="feComposite4446"
         in2="offset"
         in="fbSourceGraphic"
         operator="over"
         result="composite2" />
    </filter>
    <filter
       style="color-interpolation-filters:sRGB;"
       inkscape:label="Drop Shadow"
       id="filter4528">
      <feFlood
         flood-opacity="1"
         flood-color="rgb(0,0,0)"
         result="flood"
         id="feFlood4530" />
      <feComposite
         in="flood"
         in2="SourceGraphic"
         operator="in"
         result="composite1"
         id="feComposite4532" />
      <feGaussianBlur
         in="composite1"
         stdDeviation="0.6"
         result="blur"
         id="feGaussianBlur4534" />
      <feOffset
         dx="4.7"
         dy="3.6"
         result="offset"
         id="feOffset4536" />
      <feComposite
         in="SourceGraphic"
         in2="offset"
         operator="over"
         result="fbSourceGraphic"
         id="feComposite4538" />
      <feColorMatrix
         result="fbSourceGraphicAlpha"
         in="fbSourceGraphic"
         values="0 0 0 -1 0 0 0 0 -1 0 0 0 0 -1 0 0 0 0 1 0"
         id="feColorMatrix4540" />
      <feFlood
         id="feFlood4542"
         flood-opacity="1"
         flood-color="rgb(0,0,0)"
         result="flood"
         in="fbSourceGraphic" />
      <feComposite
         id="feComposite4544"
         in2="fbSourceGraphic"
         in="flood"
         operator="in"
         result="composite1" />
      <feGaussianBlur
         id="feGaussianBlur4546"
         in="composite1"
         stdDeviation="0.6"
         result="blur" />
      <feOffset
         id="feOffset4548"
         dx="4.7"
         dy="3.6"
         result="offset" />
      <feComposite
         id="feComposite4550"
         in2="offset"
         in="fbSourceGraphic"
         operator="over"
         result="composite2" />
    </filter>
  </defs>
  <sodipodi:namedview
     pagecolor="#ffffff"
     bordercolor="#666666"
     borderopacity="1"
     objecttolerance="10"
     gridtolerance="10"
     guidetolerance="10"
     inkscape:pageopacity="0"
     inkscape:pageshadow="2"
     inkscape:window-width="1474"
     inkscape:window-height="841"
     id="namedview3338"
     showgrid="true"
     inkscape:zoom="0.35355339"
     inkscape:cx="1219.2376"
     inkscape:cy="205.06541"
     inkscape:window-x="-8"
     inkscape:window-y="-8"
     inkscape:window-maximized="1"
     inkscape:current-layer="svg3336"
     showguides="false">
    <inkscape:grid
       type="xygrid"
       id="grid4164" />
  </sodipodi:namedview>
  <path
     style="fill:#c0c0c0;fill-opacity:1;filter:url(#filter4424)"
     d="m 1909.9406,175.829 -124.5669,124.87145 48.2353,43.16502 -120.6661,-0.31631 -0.036,-115.82635 47.3496,48.46447 150.0758,-140.56856 -10.6044,-14.99907 10.3742,-14.84859 -40.2293,-40.307248 -0.01,-19.473145 19.8388,-0.522377 20.3767,20.174284 20.0278,19.737191 14.8628,-19.982595 14.9851,-19.586198 24.745,0.05226 0.02,19.209876 -34.9506,40.339022 10.2633,15.46775 -10.3607,14.61719 154.8267,144.96879 48.5788,-43.41428 0.1655,112.16818 -121.2876,0.22798 47.8895,-43.79009 -134.8673,-130.29798 0.3111,200.07778 64.7441,0.37027 -89.9805,76.37959 -74.6489,-76.20357 64.5637,-0.51963"
     id="path4254" />
  <path
     inkscape:connector-curvature="0"
     id="path3352"
     d="m 1893.4796,-233.65823 c -31.419,-32.34228 -55.5003,-58.29413 -54.6057,-58.84706 0.5391,-0.33317 3.2287,0.14592 5.9769,1.06465 4.9877,1.66741 15.8466,12.22026 47.2383,45.90741 12.9612,13.90891 14.707,14.53049 21.5614,7.6762 2.4813,-2.48123 9.9531,-9.2986 16.6041,-15.14974 6.6512,-5.85114 12.6554,-11.32241 13.3429,-12.15839 0.6875,-0.83597 6.875,-6.43381 13.75,-12.43962 9.0964,-7.94635 15.3797,-12.26795 23.0759,-15.87125 5.8167,-2.72335 11.387,-4.79251 12.3784,-4.59813 1.0852,0.2128 -1.1297,2.84019 -5.5667,6.60343 -4.053,3.4375 -13.5666,11.875 -21.1415,18.75 -7.575,6.875 -22.7666,20.42527 -33.7593,30.11172 -10.9928,9.68644 -20.7588,18.54582 -21.7023,19.6875 -0.9436,1.14168 -2.3884,2.07578 -3.2106,2.07578 -0.8223,0 -7.096,-5.76563 -13.9418,-12.8125 z m 27.2794,-67.40101 c -1.1895,-1.1895 -1.5365,-23.9352 -1.5365,-100.7183 l 0,-99.18183 3.0681,-3.06817 c 1.6875,-1.6875 4.3749,-3.06819 5.9719,-3.06819 2.5197,0 7.8016,2.70504 9.71,4.97279 0.5826,0.69232 45.1918,43.28871 70.6415,67.45425 6.1966,5.88387 21.4909,20.18851 33.9874,31.78807 12.4964,11.59955 23.0455,21.93648 23.4425,22.97093 0.756,1.97007 -1.305,5.31396 -3.2753,5.31396 -0.6312,0 -11.5919,-9.98438 -24.3571,-22.1875 -12.7651,-12.20312 -25.791,-24.4375 -28.9464,-27.1875 -3.1552,-2.75 -22.0102,-20.46875 -41.8998,-39.375 -19.8897,-18.90625 -37.0754,-34.375 -38.1904,-34.375 -1.8475,0 -2.0829,8.76286 -2.6524,98.73302 -0.551,87.04113 -0.8501,98.77635 -2.526,99.09898 -1.0456,0.20129 -2.5925,-0.32545 -3.4375,-1.17051 z m 101.5885,-15.98504 c -2.1649,-0.88571 -1.662,-1.41859 3.75,-3.97465 6.154,-2.90649 6.9985,-2.9614 55,-3.5768 l 48.75,-0.625 0.625,-45.625 c 0.5865,-42.81518 0.7796,-45.88825 3.1365,-49.89965 5.5289,-9.41054 5.6135,-8.67124 5.6135,49.03675 0,48.40281 -0.2162,54.4284 -1.9772,55.10416 -2.9988,1.15076 -112.0303,0.7334 -114.8978,-0.43981 z m -328.125,-6.1484 c 0,-5.63119 1.1538,-5.75669 56.5823,-6.1545 l 52.4513,-0.37646 4.2246,2.87646 c 8.7622,5.96591 8.4394,6.00145 -54.5082,6.00145 -56.6395,0 -58.75,-0.0844 -58.75,-2.34695 z M 92.347505,-326.42069 c -28.394672,-3.93648 -44.066912,-12.88138 -52.876472,-30.17912 -3.12807,-6.14201 -7.29231,-25.37439 -6.14276,-28.37007 0.74324,-1.93686 4.20644,-2.12585 38.95618,-2.12585 l 38.140437,0 0.8099,3.4375 c 3.86673,16.41181 16.72132,21.35019 51.73772,19.87622 20.07307,-0.84495 26.46139,-2.16147 30.60766,-6.30774 5.31555,-5.31556 5.07756,-21.22184 -0.41145,-27.49995 -5.06967,-5.79849 -10.33853,-6.72374 -43.32121,-7.60748 -83.543797,-2.23848 -108.413527,-11.42176 -115.160257,-42.52355 -3.33719,-15.38415 -1.5064,-34.82914 4.49588,-47.75089 7.05504,-15.18816 20.81843,-24.57717 42.97561,-29.31677 8.58837,-1.83713 19.726857,-2.71673 44.699227,-3.52987 64.84946,-2.11162 97.39331,1.71297 115.77516,13.60599 12.70567,8.22054 17.7017,17.10334 18.16743,32.3011 l 0.29695,9.69044 -36.53785,0.33134 -36.53785,0.33135 -1.74817,-4.18398 c -3.99333,-9.55737 -14.22124,-13.35371 -35.97694,-13.35371 -20.14784,0 -32.77903,1.99231 -37.42705,5.90336 -3.26364,2.74618 -3.64714,3.83726 -3.64714,10.37638 0,18.45486 4.61749,19.97423 68.125,22.41642 44.61033,1.7155 63.04711,5.14201 76.54347,14.22575 12.73775,8.57316 17.81901,19.7101 18.76454,41.12759 0.75458,17.09221 -1.70495,28.07781 -8.59692,38.39864 -11.62667,17.41107 -30.94365,26.4122 -66.03858,30.77198 -18.24621,2.26669 -89.21556,2.23642 -105.672515,-0.0451 z m 281.250005,-0.0276 c -36.44539,-5.85021 -51.875,-23.33616 -51.875,-58.78848 0,-34.9345 16.21321,-53.65105 51.875,-59.88454 7.94406,-1.38857 19.36426,-1.96761 38.86255,-1.97043 23.5343,-0.004 29.05696,0.36544 37.39229,2.49725 12.3427,3.15672 19.80465,7.50659 23.83823,13.89621 2.36659,3.7489 3.85355,4.91099 5.9096,4.61845 2.72248,-0.38736 2.74733,-0.61135 2.74733,-24.7659 0,-22.94246 -0.16166,-24.63493 -2.75074,-28.79761 -1.51291,-2.43244 -4.95682,-5.6625 -7.65313,-7.17792 -6.46824,-3.63535 -22.0206,-5.73638 -34.59613,-4.67373 -16.2681,1.37468 -24.05345,6.19541 -26.81625,16.60475 l -1.4148,5.33048 -38.38447,-0.33048 -38.38448,-0.33049 0.28957,-7.70432 c 0.53628,-14.26833 7.57718,-27.77709 18.77092,-36.01412 7.8014,-5.74075 16.78595,-9.05521 32.81451,-12.1055 11.50091,-2.18866 18.61596,-2.50972 57.5,-2.59468 48.28297,-0.1055 62.2597,1.13476 79.72279,7.07433 11.31031,3.84689 13.36376,4.96989 21.18479,11.58562 4.55459,3.8527 7.69718,7.96608 10.37889,13.58511 7.6813,16.0947 7.83154,17.8327 8.37822,96.91812 l 0.49766,71.99456 -11.5232,0.81794 c -14.79818,1.0504 -57.10945,1.06138 -62.3355,0.0161 l -4.00885,-0.80176 0.4151,-13.85008 c 0.36624,-12.21981 0.16567,-13.9003 -1.7039,-14.2767 -1.5237,-0.30676 -2.88491,1.3538 -4.84534,5.91095 -5.01022,11.64656 -18.28577,19.71533 -38.13187,23.17619 -13.38565,2.33426 -51.71834,2.3578 -66.15379,0.0406 z m 91.84994,-39.43862 c 11.50751,-2.77534 17.52506,-10.49453 17.52506,-22.48072 0,-13.65476 -6.93241,-19.2416 -26.5427,-21.39077 -15.2485,-1.67116 -34.27842,-0.73477 -42.48224,2.09036 -7.25648,2.4989 -13.38865,9.07192 -13.69385,14.67834 -0.94037,17.27396 4.14361,24.3213 20.21879,28.02688 7.88598,1.81783 36.00145,1.24018 44.97494,-0.92405 z m 913.77505,38.83375 c -34.4661,-6.44905 -48.6761,-23.54023 -48.7315,-58.61214 -0.054,-33.92808 14.9165,-51.84413 49.2166,-58.90164 10.1973,-2.09818 17.067,-2.52879 40.3433,-2.52879 37.0525,0 49.7372,2.71306 58.7515,12.56599 1.9497,2.13126 4.8343,5.28752 6.4102,7.01392 2.376,2.6031 3.1888,2.8703 4.7611,1.56536 1.5969,-1.3253 1.835,-5.23742 1.5099,-24.79691 -0.4325,-26.01461 -1.3736,-29.66071 -8.9942,-34.84587 -6.6182,-4.50309 -12.7055,-5.6806 -29.5169,-5.70974 -13.1539,-0.0228 -16.5146,0.37975 -21.25,2.54529 -7.1689,3.2784 -10.6637,7.1704 -12.4364,13.84946 l -1.41,5.3125 -38.116,0 c -33.5045,0 -38.2073,-0.23775 -38.8701,-1.9651 -0.4147,-1.0808 -0.1037,-5.90158 0.6905,-10.71284 3.3214,-20.11179 15.2628,-33.53965 35.767,-40.21955 15.2105,-4.95529 27.2488,-5.95079 73.125,-6.04697 39.3678,-0.0825 46.147,0.20047 60.0788,2.5083 40.9706,6.78685 55.1101,21.70683 58.669,61.90771 0.677,7.6469 1.2356,41.30554 1.2414,74.79697 0.013,60.36259 -0.013,60.90563 -2.5842,62.28232 -2.6544,1.42055 -62.3895,1.66903 -70.9657,0.2952 l -4.1859,-0.67053 0.4359,-13.90026 c 0.3975,-12.67916 0.2395,-13.90025 -1.7989,-13.90025 -1.457,0 -3.4218,2.37584 -5.6462,6.82751 -5.7178,11.44326 -17.5562,18.34644 -37.7442,22.00929 -13.9703,2.53474 -53.6934,2.14806 -68.75,-0.66923 z m 96.9255,-39.35643 c 10.3569,-3.08605 15.5745,-10.85428 15.5745,-23.18781 0,-7.29342 -3.8111,-13.46738 -10.2684,-16.63481 -9.3597,-4.59112 -44.1945,-5.78181 -57.8285,-1.97662 -2.7582,0.76982 -7.0712,3.48711 -9.6875,6.1033 -4.8572,4.85726 -5.3727,6.90065 -4.7328,18.7598 0.506,9.37783 8.4926,16.48152 21.1677,18.82785 8.3981,1.55456 38.3655,0.31612 45.775,-1.89171 z m -847.24959,39.07462 c -2.07126,-1.54067 -2.18025,-7.3758 -1.875,-100.38576 l 0.3241,-98.75 38.75,0 38.75,0 0.625,18.125 c 0.60079,17.42297 0.7301,18.13996 3.33835,18.51145 2.24104,0.31917 3.38651,-1.02403 6.58039,-7.71619 7.24186,-15.17395 19.80325,-24.55116 38.56435,-28.78869 14.08604,-3.18157 47.95637,-2.94594 62.18182,0.43259 25.14154,5.9711 38.40028,17.59179 44.25308,38.78571 2.4771,8.97004 2.582,12.40479 2.582,84.54839 l 0,75.19851 -4.0625,0.66069 c -6.099,0.9919 -63.72571,1.16125 -68.83735,0.2023 l -4.4444,-0.83377 -0.39038,-67.06299 c -0.3883,-66.70919 -0.40513,-67.09065 -3.19132,-72.30309 -3.53471,-6.6128 -9.2918,-11.03037 -16.85118,-12.93041 -6.87521,-1.72806 -30.47773,-0.99546 -37.3762,1.16012 -6.30742,1.97092 -15.23533,10.20298 -18.75952,17.29739 l -2.96214,5.96299 -0.36689,63.70984 c -0.22576,39.20375 -0.83123,63.99684 -1.5741,64.45595 -0.66397,0.41035 -17.37387,0.88327 -37.13311,1.05092 -28.02729,0.2378 -36.40939,-0.0549 -38.125,-1.33095 z m 329.63989,0.60148 -10.0591,-0.45517 -6.5723,-29.64103 c -6.5735,-29.64615 -20.04,-90.68884 -25.9802,-117.76604 -1.7345,-7.90625 -4.7963,-21.49656 -6.8039,-30.20069 -2.0077,-8.70412 -3.6503,-17.29074 -3.6503,-19.08137 l 0,-3.2557 36.4835,0.33138 36.4835,0.33138 1.0147,3.91746 c 0.558,2.1546 3.2699,17.06085 6.0264,33.125 2.7566,16.06415 7.23456,42.14504 9.95126,57.95754 2.7167,15.8125 6.09804,35.5 7.51394,43.75 1.4159,8.25 2.8663,15.93241 3.2231,17.07202 0.7973,2.54645 3.372,3.65127 5.4771,2.35024 1.8695,-1.15537 3.1748,-5.72722 16.9665,-59.42226 20.1256,-78.35476 24.463,-94.73175 25.7031,-97.04895 1.1789,-2.20271 3.6592,-2.32605 46.7777,-2.32605 l 45.5328,0 1.2621,4.6875 c 1.6491,6.12531 9.0774,34.70443 20.7125,79.6875 8.4574,32.69728 14.7183,56.65516 18.2117,69.6875 1.4646,5.46406 5.4639,6.47864 7.391,1.875 0.6475,-1.54688 5.9755,-29.53125 11.8401,-62.1875 5.8645,-32.65625 11.4925,-63.875 12.5065,-69.375 1.0141,-5.5 2.2168,-12.25 2.6727,-15 1.6657,-10.0481 -1.0685,-9.375 38.0831,-9.375 29.9657,0 35.0987,0.26967 35.7152,1.87645 0.396,1.03205 -0.1869,5.67267 -1.2954,10.3125 -1.1085,4.63982 -3.6561,16.31105 -5.6615,25.93605 -5.0998,24.4779 -21.1015,99.57956 -23.3041,109.375 -1.0049,4.46875 -3.9275,17.93355 -6.4947,29.92179 l -4.6678,21.79678 -4.2902,1.11047 c -2.3597,0.61075 -27.8337,0.9272 -56.6089,0.70321 -43.0472,-0.33507 -52.5093,-0.71581 -53.394,-2.14844 -0.5914,-0.95765 -4.0092,-13.89515 -7.595,-28.75 -20.0802,-83.1854 -26.3542,-108.55041 -27.4955,-111.16031 -1.9064,-4.35925 -5.3609,-2.94067 -7.0921,2.91225 -0.8116,2.74409 -3.549,13.98925 -6.083,24.98925 -2.534,11 -7.007,30.125 -9.9399,42.5 -2.9329,12.375 -7.1416,30.375 -9.3525,40 -2.211,9.625 -4.949,20.59375 -6.0845,24.375 l -2.0644,6.875 -47.5,0.0962 c -26.125,0.0529 -52.0266,-0.10863 -57.5592,-0.35896 z m 803.0435,-39.25295 c -2.0705,-2.07054 -2.4845,-3.60287 -1.9177,-7.09679 0.8409,-5.18124 3.103,-7.65411 31.4334,-34.36076 20.768,-19.57774 40.4381,-38.54815 78.8748,-76.06878 23.2733,-22.71872 27.2415,-25.41492 32.9268,-22.3722 1.7152,0.9179 2.5734,2.6211 2.5734,5.10704 0,3.37724 -0.3024,3.65394 -3.1987,2.92699 -3.531,-0.88623 -2.047,-2.20761 -49.9437,44.4685 -13.072,12.73894 -26.572,25.64631 -30,28.68305 -3.428,3.03675 -17.366,16.2555 -30.9733,29.375 -23.9189,23.06116 -24.7164,23.98864 -24.0059,27.91616 0.8875,4.90615 -1.6575,5.53338 -5.7691,1.42179 z M 1926.41,-535.94585 c -1.5136,-0.8816 -2.1875,-2.83392 -2.1875,-6.33735 0,-4.32227 0.8231,-5.89821 5.625,-10.76883 3.0938,-3.13808 5.625,-6.16098 5.625,-6.71755 0,-0.55657 -1.7116,-1.89709 -3.8037,-2.97892 -2.092,-1.08184 -4.3589,-3.4273 -5.0375,-5.21215 -2.3674,-6.22683 0.6061,-10.75741 17.6311,-26.86359 8.8525,-8.37471 16.7747,-16.95244 17.605,-19.06162 1.6254,-4.12878 5.8931,-9.45988 7.573,-9.45988 0.5676,0 1.0321,3.55346 1.0321,7.89657 l 0,7.89657 -17.2967,17.043 c -22.3788,22.05041 -20.7952,19.89338 -18.2372,24.84016 1.1679,2.25823 3.4532,5.15196 5.0787,6.43052 4.4026,3.46311 3.6961,5.90342 -3.5825,12.37579 -5.9482,5.28928 -6.4357,6.10626 -5.0248,8.42054 0.8594,1.40961 1.5625,2.85182 1.5625,3.2049 0,1.09285 -4.2595,0.6332 -6.5625,-0.70816 z m -38.4994,-10.59072 c -2.3485,-2.49991 -2.6363,-3.41407 -1.3295,-4.22179 3.7248,-2.30204 10.7183,1.95498 9.2968,5.65913 -1.0463,2.72644 -4.6696,2.07275 -7.9673,-1.43734 z m -11.298,-41.9009 c -16.0065,-16.96792 -18.6511,-21.14281 -13.4146,-21.17745 4.1709,-0.0276 33.8206,30.4379 33.282,34.19771 -0.8146,5.68812 -4.4929,3.27759 -19.8674,-13.02026 z"
     style="fill:#000000;fill-opacity:0" />
  <path
     id="path4451-5"
     style="fill:#ff0000;fill-opacity:1;filter:url(#filter4528)"
     d="m 1401.0297,349.87605 c -13.2346,-1.3719 -27.4247,-5.18906 -35.3742,-9.51572 -8.757,-4.76615 -18.6347,-15.95235 -21.9268,-24.83156 -5.6814,-15.32303 -6.2169,-37.65965 -1.2887,-53.75332 4.4195,-14.43214 16.3274,-26.65436 31.9801,-32.82407 12.6328,-4.97938 23.8585,-6.55607 51.6096,-7.24872 40.8239,-1.01893 57.4842,2.72999 68.6858,15.45577 4.1049,4.66333 5.173,5.32217 5.8344,3.59868 0.4452,-1.16033 0.5487,-10.69086 0.23,-21.17893 -0.7113,-23.4023 -2.1128,-27.26242 -11.6252,-32.01859 -5.7738,-2.8869 -7.5833,-3.125 -23.75,-3.125 -13.94,0 -18.2628,0.42084 -21.25,2.06874 -5.7361,3.1644 -9.1966,7.50966 -10.3313,12.97266 l -1.0299,4.9586 -41.4173,0.32924 c -47.6903,0.3791 -43.8922,1.54128 -41.6119,-12.73303 3.5482,-22.21046 15.0768,-37.1114 34.0413,-43.999 15.9068,-5.777 26.4356,-6.9529 68.257,-7.6233 43.6047,-0.699 64.5531,0.5024 82.62,4.7382 26.3194,6.1707 40.6207,19.38553 47.2526,43.66289 2.012,7.36545 2.2195,15.19466 2.2195,83.75001 l 0,75.625 -41.25,0 -41.25,0 0.3049,-11.875 0.3048,-11.875 -2.7968,3.75 c -9.5579,12.81541 -23.0204,19.11885 -46.6023,21.82026 -13.0839,1.49883 -36.6999,1.44013 -51.8356,-0.12885 z m 81.501,-46.21226 c 12.6097,-2.65719 17.2234,-7.63737 17.6337,-19.03449 0.3116,-8.65479 -1.9177,-12.62609 -9.0267,-16.08024 -5.0288,-2.4434 -8.2055,-2.84627 -25.8611,-3.27981 -23.2542,-0.571 -31.3248,0.97857 -37.237,7.14954 -6.0189,6.28242 -5.7321,20.1348 0.5342,25.8058 5.1797,4.68755 14.7345,6.75126 31.4569,6.79423 8.7318,0.0225 18.8568,-0.58732 22.5,-1.35503 z M 112.90354,348.34598 c -39.698053,-3.49654 -61.088503,-17.47036 -68.130963,-44.5082 -1.02797,-3.94666 -1.86904,-10.71381 -1.86904,-15.03813 l 0,-7.86237 41.2892,0 c 38.237003,0 41.338303,0.16171 41.952803,2.1875 3.1459,10.3705 5.1706,13.54908 10.5492,16.56085 5.4745,3.06544 6.1099,3.12665 32.4588,3.12665 29.6573,0 33.7081,-0.87576 36.4134,-7.87237 1.9343,-5.00261 0.7084,-15.96747 -2.1367,-19.11123 -5.538,-6.11944 -7.9455,-6.53325 -43.6517,-7.50324 -50.0561,-1.35981 -74.699603,-4.86315 -91.288023,-12.97759 -20.34645,-9.95272 -28.32754,-28.43772 -25.48531,-59.02652 1.54067,-16.58105 5.22111,-25.57718 14.53973,-35.53954 16.07061,-17.18075 39.9892,-22.34025 103.579003,-22.34305 39.257,-0.001 56.9382,1.3572 74.0291,5.6894 18.9558,4.8049 30.6357,12.90168 37.3812,25.91343 2.9608,5.71126 3.3875,7.99481 3.4374,18.39571 l 0.057,11.875 -39.0867,0.33034 -39.0866,0.33035 -1.3054,-3.45535 c -2.2563,-5.9725 -7.3076,-10.1312 -14.1715,-11.66727 -8.0788,-1.80795 -46.0143,-0.9223 -51.49,1.2021 -8.7759,3.40475 -9.217,18.74424 -0.6661,23.16607 6.7523,3.49173 14.4315,4.35508 50.2353,5.64772 19.564,0.70634 40.3522,1.88774 46.196,2.62535 35.1805,4.44059 51.8324,14.8154 58.9503,36.7284 4.0408,12.44019 4.0282,35.16288 -0.026,46.75318 -5.5709,15.92631 -15.0902,26.4 -30.7993,33.88731 -21.3692,10.18498 -38.0902,12.65716 -89.375,13.214 -21.6563,0.23514 -45.2813,-0.0928 -52.5,-0.7285 z m 280,-0.0923 c -13.2346,-1.3719 -27.4247,-5.18906 -35.3742,-9.51572 -8.757,-4.76615 -18.6347,-15.95235 -21.9268,-24.83156 -5.6814,-15.32303 -6.2169,-37.65965 -1.2887,-53.75332 4.4195,-14.43214 16.3274,-26.65436 31.9801,-32.82407 12.6328,-4.97938 23.8585,-6.55607 51.6096,-7.24872 40.8239,-1.01892 57.4842,2.72999 68.6858,15.45577 4.1049,4.66333 5.173,5.32217 5.8344,3.59868 0.4452,-1.16033 0.5487,-10.69086 0.23,-21.17892 -0.7113,-23.4023 -2.1128,-27.26242 -11.6252,-32.01859 -5.7738,-2.8869 -7.5833,-3.125 -23.75,-3.125 -13.94,0 -18.2628,0.42084 -21.25,2.06874 -5.7361,3.1644 -9.1966,7.50966 -10.3313,12.97266 l -1.0299,4.9586 -41.4173,0.32924 c -47.6903,0.3791 -43.8922,1.54128 -41.6119,-12.73303 3.5482,-22.21046 15.0768,-37.1114 34.0413,-43.999 15.9068,-5.777 26.4356,-6.9529 68.257,-7.6233 43.6047,-0.699 64.5531,0.5024 82.62,4.7382 26.3194,6.1707 40.6207,19.38553 47.2526,43.66289 2.012,7.36545 2.2195,15.19466 2.2195,83.75 l 0,75.625 -41.25,0 -41.25,0 0.3049,-11.875 0.3048,-11.875 -2.7968,3.75 c -9.5579,12.81541 -23.0204,19.11885 -46.6023,21.82026 -13.0839,1.49883 -36.6999,1.44013 -51.8356,-0.12885 z m 81.501,-46.21226 c 12.6097,-2.65719 17.2234,-7.63737 17.6337,-19.03449 0.3116,-8.65479 -1.9177,-12.62609 -9.0267,-16.08024 -5.0288,-2.4434 -8.2055,-2.84627 -25.8611,-3.27981 -23.2542,-0.571 -31.3248,0.97857 -37.237,7.14954 -6.0189,6.28242 -5.7321,20.1348 0.5342,25.8058 5.1797,4.68755 14.7345,6.75126 31.4569,6.79423 8.7318,0.0225 18.8568,-0.58732 22.5,-1.35503 z m 162.8309,43.60048 c -0.3315,-0.8688 -0.4574,-47.14212 -0.2798,-102.82962 l 0.3229,-101.25004 41.5625,-0.3293 41.5625,-0.3294 0.088,15.3294 c 0.048,8.43113 0.5125,16.41324 1.0315,17.73799 0.7976,2.03609 1.3847,1.49737 3.7955,-3.48273 7.7386,-15.98566 23.5789,-26.63136 45.0852,-30.29996 16.3726,-2.7929 47.7833,-1.8578 61.6424,1.835 23.8928,6.3664 36.8144,18.13385 44.1035,40.16404 2.0782,6.28126 2.3123,13.45511 2.7108,83.06795 0.2398,41.90614 0.1101,77.49182 -0.2884,79.07933 l -0.7244,2.88636 -41.5345,-0.32933 -41.5345,-0.32931 -0.625,-68.75 c -0.6063,-66.70109 -0.7029,-68.89856 -3.2396,-73.73483 -1.8338,-3.496 -4.4372,-5.9227 -8.7167,-8.125 -5.4374,-2.79821 -7.6029,-3.13872 -19.8853,-3.12682 -16.7295,0.0162 -24.9778,2.4311 -31.8806,9.33384 -9.1393,9.13932 -9.1424,9.16468 -9.9408,80.65281 l -0.712,63.75 -40.9701,0.32962 c -32.1047,0.25829 -41.1006,-0.0125 -41.573,-1.25 z m 320.8105,-1.26712 c -0.5751,-1.54688 -1.9564,-7.03125 -3.0695,-12.1875 -2.2632,-10.4837 -28.2288,-128.3667 -35.884,-162.91256 -2.7164,-12.25817 -4.9389,-23.64878 -4.9389,-25.31248 l 0,-3.025 39.4018,0 39.4018,0 1.2121,2.8125 c 0.6667,1.5469 3.189,14.62504 5.605,29.06254 2.41606,14.4375 6.64286,39.1875 9.39286,55 2.75,15.8125 6.4681,37.46875 8.2624,48.125 3.3671,19.99705 4.7117,24.77407 5.9814,21.25 0.3716,-1.03125 8.5884,-32.53125 18.2595,-70 21.6248,-83.78054 21.3538,-82.77544 22.8316,-84.68754 1.753,-2.2681 95.0141,-2.2681 96.8825,0 0.7079,0.8594 10.0834,35.59379 20.8346,77.18754 10.7512,41.59375 19.8689,76.46875 20.2615,77.5 1.241,3.25924 2.3291,-2.05666 16.1188,-78.75 7.355,-40.90625 13.9325,-75.07814 14.6165,-75.93754 0.946,-1.1884 10.3426,-1.5625 39.2548,-1.5625 31.8858,0 38.1223,0.2894 38.7002,1.7954 0.5837,1.5213 -7.0733,39.12078 -20.2537,99.45464 -1.7271,7.90625 -7.4712,34.625 -12.7645,59.375 l -9.6242,45 -58.8994,0.32464 c -46.1643,0.25443 -59.1779,-0.0159 -60.1875,-1.25 -1.3968,-1.7074 -2.9806,-7.99444 -21.6515,-85.94964 -6.8335,-28.53125 -12.7567,-52.71875 -13.1628,-53.75 -1.2792,-3.24889 -2.4789,1.138 -14.8713,54.375 -17.7467,76.23909 -19.5527,83.6067 -20.9128,85.3125 -0.9652,1.2105 -14.5942,1.5625 -60.4987,1.5625 l -59.25286,0 z" />
</svg>
